<svg id="Layer_1" data-name="Layer 1" xmlns="http://www.w3.org/2000/svg" viewBox="0 0 64 64"><defs><style>.cls-1,.cls-2{fill:none;stroke-linecap:round;stroke-linejoin:round;stroke-width:2px;}.cls-1{stroke:#13aa52;}.cls-2{stroke:#6e60f9;}</style></defs><path class="cls-1" d="M56.2,6.83A57.89,57.89,0,0,0,32.52,2h0A57.89,57.89,0,0,0,8.84,6.83a4,4,0,0,0-2.32,3.63V30.77A31.76,31.76,0,0,0,26.87,60.4l2.78,1.07a8.1,8.1,0,0,0,2.87.53h0a8.1,8.1,0,0,0,2.87-.53l2.78-1.07A31.76,31.76,0,0,0,58.52,30.77V10.46A4,4,0,0,0,56.2,6.83Z"/><path class="cls-2" d="M36.6,16.82H26.93a4.58,4.58,0,0,0-4.57,4.57h0A4.58,4.58,0,0,0,26.93,26h9.93"/><path class="cls-1" d="M28.18,42.64h9.93a4.58,4.58,0,0,0,4.57-4.56h0a4.58,4.58,0,0,0-4.57-4.57H28.23"/><circle class="cls-1" cx="24.12" cy="38.08" r="6.08"/><circle class="cls-2" cx="40.92" cy="21.39" r="6.08"/></svg>