<svg id="Layer_1" data-name="Layer 1" xmlns="http://www.w3.org/2000/svg" viewBox="0 0 64 64"><defs><style>.cls-1,.cls-2{fill:none;stroke-width:2px;}.cls-1{stroke:#13aa52;}.cls-2{stroke:#6e60f9;stroke-linecap:round;stroke-linejoin:round;}</style></defs><path id="Stroke-1" class="cls-1" d="M7.92,22.87h0c.19-.48.49-1.13.88-1.93a4.75,4.75,0,0,0,.65-1.84,1.51,1.51,0,0,0-.28-.91,1.1,1.1,0,0,0-.89-.43,2.88,2.88,0,0,0-1.92,1,14.38,14.38,0,0,0-2,2.64A21.52,21.52,0,0,0,2.16,39.08a21.61,21.61,0,0,0,2.9,5.83,10.21,10.21,0,0,0,1.66,2,2.43,2.43,0,0,0,1.57.71,1.08,1.08,0,0,0,.89-.44,1.54,1.54,0,0,0,.28-.94A6,6,0,0,0,8.63,44c-.5-1-.91-2-1.2-2.72a24,24,0,0,1-1.26-4.23,22.54,22.54,0,0,1-.41-4.39,22.19,22.19,0,0,1,.49-4.73A28.89,28.89,0,0,1,7.92,22.87Z"/><path id="Stroke-3" class="cls-1" d="M21.69,20.4h0a10.71,10.71,0,0,0-1.64-1.93,2.49,2.49,0,0,0-1.61-.71,1.11,1.11,0,0,0-.88.42,1.43,1.43,0,0,0-.3.92,6.2,6.2,0,0,0,.82,2.21c.5,1,.9,2,1.21,2.72a25.26,25.26,0,0,1,1.29,4.29A22.41,22.41,0,0,1,21,32.66a22.33,22.33,0,0,1-.5,4.73,30.53,30.53,0,0,1-1.67,5.08c-.21.47-.51,1.12-.91,1.91a4.63,4.63,0,0,0-.66,1.81,1.52,1.52,0,0,0,.29.94,1.12,1.12,0,0,0,.89.44,2.76,2.76,0,0,0,1.88-1,15.22,15.22,0,0,0,2-2.65,21.9,21.9,0,0,0,2.43-5.41,21.09,21.09,0,0,0,.81-5.88,21.44,21.44,0,0,0-1-6.43A21,21,0,0,0,21.69,20.4Z"/><path id="Stroke-5" class="cls-2" d="M39.13,30.28h0a9.34,9.34,0,0,0,.78-4.47v-2.6a4.51,4.51,0,0,1,.35-2.28,1.76,1.76,0,0,1,1.17-.64,3.35,3.35,0,0,0,.47-.07c1.77-.22,2-1.32,2-1.95a1.74,1.74,0,0,0-.58-1.36,2.2,2.2,0,0,0-1.48-.48c-2.16,0-3.73.57-4.66,1.7s-1.36,3.06-1.36,5.95v2.1c0,2.05-.8,3.16-2.53,3.53l-.76.18a1.89,1.89,0,0,0-1.09.65,2,2,0,0,0-.37,1.22,2,2,0,0,0,.45,1.39,2.17,2.17,0,0,0,1.3.6c1.79.31,2.34.77,2.51,1a4.85,4.85,0,0,1,.49,2.62v2.06c0,2.89.44,4.84,1.35,5.94s2.47,1.68,4.63,1.68a2.28,2.28,0,0,0,1.5-.46,1.66,1.66,0,0,0,.6-1.36c0-.64-.26-1.75-2-2a5.74,5.74,0,0,1-.6-.09,1.66,1.66,0,0,1-1.08-.63,4.59,4.59,0,0,1-.31-2.17V37.75a9.32,9.32,0,0,0-.78-4.46,4,4,0,0,0-1.55-1.52A4,4,0,0,0,39.13,30.28Z"/><path id="Stroke-7" class="cls-2" d="M62.42,30.54h0a2.08,2.08,0,0,0-1.11-.65l-.85-.18C58.8,29.36,58,28.24,58,26.18v-2.1c0-2.89-.44-4.83-1.36-5.95s-2.5-1.7-4.65-1.7a2.14,2.14,0,0,0-1.49.49A1.85,1.85,0,0,0,50,18.34c0,.6.25,1.64,2,1.88l.62.1a1.63,1.63,0,0,1,1,.64A5,5,0,0,1,54,23.21v2.6a9.3,9.3,0,0,0,.79,4.46,4,4,0,0,0,1.57,1.5,4.08,4.08,0,0,0-1.57,1.54A9.32,9.32,0,0,0,54,37.75v2.62a4.47,4.47,0,0,1-.33,2.24,1.84,1.84,0,0,1-1.22.59h0l-.4.06c-1.74.25-2,1.29-2,1.89a1.85,1.85,0,0,0,.55,1.44,2.21,2.21,0,0,0,1.51.48c2.16,0,3.72-.56,4.64-1.68s1.34-3,1.34-5.94V37.39c0-2.08.85-3.22,2.68-3.57l.55-.11a1.85,1.85,0,0,0,1.17-.66,2.11,2.11,0,0,0,.39-1.29A1.82,1.82,0,0,0,62.42,30.54Z"/></svg>