<svg id="Layer_1" data-name="Layer 1" xmlns="http://www.w3.org/2000/svg" viewBox="0 0 64 64"><defs><style>.cls-1{fill:none;stroke:#6e60f9;stroke-linecap:round;stroke-linejoin:round;stroke-width:2px;}.cls-2{fill:#13aa52;}</style></defs><path class="cls-1" d="M38.2,63a6.21,6.21,0,0,0,.48-1.08,7.11,7.11,0,0,1,9.74-4,8.13,8.13,0,0,0,1.09.42,31.87,31.87,0,0,0,8.78-8.77,6.29,6.29,0,0,0-.42-1.11,7,7,0,0,1-.69-3,7.12,7.12,0,0,1,4.72-6.7A6.56,6.56,0,0,0,63,38.2a31.81,31.81,0,0,0,0-12.4,6.56,6.56,0,0,0-1.08-.48,7.12,7.12,0,0,1-4.72-6.7,7,7,0,0,1,.69-3,6.29,6.29,0,0,0,.42-1.11,31.73,31.73,0,0,0-8.78-8.77,6.1,6.1,0,0,0-1.09.42,7.23,7.23,0,0,1-3,.69,7.12,7.12,0,0,1-6.7-4.72A6.21,6.21,0,0,0,38.2,1,31.86,31.86,0,0,0,25.79,1a8.2,8.2,0,0,0-.48,1.08,7.09,7.09,0,0,1-6.69,4.72,7.2,7.2,0,0,1-3-.69,6.41,6.41,0,0,0-1.09-.42A31.9,31.9,0,0,0,5.7,14.48a7.25,7.25,0,0,0,.43,1.11,7,7,0,0,1,.69,3,7.12,7.12,0,0,1-4.72,6.7A6.56,6.56,0,0,0,1,25.8,31.81,31.81,0,0,0,1,38.2a6.56,6.56,0,0,0,1.08.48,7.12,7.12,0,0,1,4.72,6.7,7,7,0,0,1-.69,3,7.25,7.25,0,0,0-.43,1.11,32,32,0,0,0,8.79,8.77,8.69,8.69,0,0,0,1.09-.42,7.09,7.09,0,0,1,9.73,4A8.2,8.2,0,0,0,25.79,63,31.86,31.86,0,0,0,38.2,63Z"/><path class="cls-2" d="M45.78,36.38,46,27.5a3.33,3.33,0,0,0-.69-6.58A3.28,3.28,0,0,0,42.83,22L35.18,17.7a3.24,3.24,0,0,0,.15-.94,3.33,3.33,0,0,0-6.66,0,3.24,3.24,0,0,0,.15.94L21.17,22a3.28,3.28,0,0,0-2.44-1.09A3.32,3.32,0,0,0,18,27.48v8.88A3.32,3.32,0,1,0,20.9,42.1l7.9,4.26a3.6,3.6,0,0,0-.13.88,3.33,3.33,0,1,0,6.49-1l7.4-4.36a3.32,3.32,0,1,0,3.22-5.5ZM22,38.91a3.27,3.27,0,0,0-1-1.73L31,19.93a3.13,3.13,0,0,0,1,.16,3.39,3.39,0,0,0,.91-.14L42.57,37.3a3.29,3.29,0,0,0-.89,2ZM42.09,23.32a3.48,3.48,0,0,0-.14.93,3.31,3.31,0,0,0,2.51,3.21l-.18,8.88-.45.14-9.6-17.26c.07-.07.15-.14.22-.22ZM29.55,19a1.53,1.53,0,0,0,.18.18l-10,17.25-.22-.07V27.48a3.32,3.32,0,0,0,2.57-3.23,3.48,3.48,0,0,0-.14-.93ZM32,43.91A3.32,3.32,0,0,0,29.51,45L21.8,40.88a3.64,3.64,0,0,0,.14-.47l19.57.36L34.41,45A3.31,3.31,0,0,0,32,43.91Z"/></svg>