<svg height="55" viewBox="0 0 54 55" width="54" xmlns="http://www.w3.org/2000/svg"><g fill="none" fill-rule="evenodd"><g fill="#13aa52" fill-rule="nonzero"><path d="m4.32547281 3.0630051c.65928227-.20668038 1.37797511.11180626 1.6052454.71135982.21103669.55672831-.07586027 1.16004214-.64578056 1.40886927l-.13644633.05094642c-1.04389901.32725504-1.78557069 1.14166792-1.9377927 2.03460047l-.02249997.17951236-.00308691 41.02316896c.08026257 1.0419355.8498873 1.9452849 1.96337958 2.294357.65928227.2066804 1.00949718.8602621.78222689 1.4598157-.22727029.5995535-.94596313.9180402-1.6052454.7113598-1.98055976-.6208916-3.38694183-2.2006454-3.63665806-4.131497l-.02596427-.2537913.00308691-41.18365735c.1513849-1.96521625 1.59286437-3.65715722 3.65953542-4.30504415z"/><path d="m48.0688105 3.77549128c.2264382-.59976766.9442982-.91893218 1.6033852-.71287391 1.9811262.61938324 3.3879783 2.20053842 3.635769 4.13183267l.0256993.25384334-.0029979 41.18251852c-.1492427 1.9667225-1.5912083 3.6602578-3.6584704 4.3065707-.659087.2060583-1.376947-.1131062-1.6033852-.7128739-.2102641-.5569271.0771332-1.1599699.6469646-1.4082592l.1364152-.0508177c1.0430692-.3261072 1.784244-1.140406 1.9354789-2.0340579l.0222958-.1796673.0029979-41.02430795c-.079047-1.04168151-.8481655-1.94498276-1.9607726-2.29283045-.6590869-.20605827-1.0098181-.85930926-.7833798-1.45907692z"/><path d="m10.0476536.92795301c10.427107-1.09753603 22.3189748-1.37027027 33.9219528.00193133.6511885.07701142 1.1076357.60072246 1.0195034 1.16974134s-.6874702.96786973-1.3386587.8908583c-11.3705981-1.34471967-23.0745478-1.07629524-33.318206.00193133-.65240915.06867126-1.24499927-.33780531-1.32358705-.90789084-.07858779-.57008552.38658635-1.0879002 1.03899555-1.15657146z"/><path d="m43.6530987 52.0095063c.6513846-.0782316 1.2496976.3349784 1.3363694.9229303.0866718.587952-.3711184 1.1280004-1.022503 1.206232-1.5186728.1823934-3.0874434.3342937-4.701982.457082-7.7695012.5908831-16.0587537.4926938-23.9689716-.0273236l-1.1826776-.0814174c-.9574977-.0689599-1.8437259-.1403778-2.6504208-.2118396l-1.413311-.1346161c-.65253812-.0699623-1.11869024-.6041512-1.04117987-1.1931444s.66933164-1.0097508 1.32186977-.9397885l1.083268.1046197 1.2707808.1094263c.8549923.0698892 1.7859449.13886 2.7845296.204507 7.7963611.5125325 15.9685744.6093354 23.5963184.0292331 1.5773926-.1199632 3.1082342-.268191 4.5879099-.4459008z"/><path d="m43.6531529 5.00950071c.6513885-.07821243 1.2496805.33506349 1.3363224.92307761.086642.58801411-.3711756 1.12809744-1.0225642 1.20630987-1.5186663.18234675-3.0874305.33420834-4.7019627.45696529-7.7694766.59073284-16.0587087.49256847-23.9689068-.02731708-1.0131885-.06659025-1.9584131-.13660332-2.82741-.20762569l-1.8157087-.15999647-.6032723-.06014186c-.65254133-.06994508-1.11871776-.60416998-1.0412342-1.19322471.07748357-.58905472.66928568-1.00987623 1.321827-.93993115l.8195284.08034102.5455318.04951917c1.1100514.0983102 2.3755145.19670638 3.7735366.28858922 7.7963809.51240509 15.9686148.60918393 23.5963834.0292255 1.5773989-.11993361 3.108247-.2681248 4.5879293-.44579072z"/></g><path d="m32.1965309 16s-4.5544612 8.7019318-13.1965309 10.3989314c15.8824048-1.4843404 16-1.5377723 16-1.5377723l-15.4167279 8.7553637 15.4167279-1.4854089s-7.1239159 4.0319769-12.0299868 9.8688861" stroke="#6e60f9" stroke-linecap="round" stroke-linejoin="round" stroke-width="2"/></g></svg>