<svg id="Layer_1" data-name="Layer 1" xmlns="http://www.w3.org/2000/svg" viewBox="0 0 64 64"><defs><style>.cls-1,.cls-2,.cls-3{fill:none;stroke-linecap:round;stroke-width:2px;}.cls-1,.cls-2{stroke:#13aa52;}.cls-1,.cls-3{stroke-linejoin:round;}.cls-3{stroke:#6e60f9;}</style></defs><g id="_96px-_-Atlas-_-Triggers-_-Leaf-Forest" data-name="96px-/-Atlas-/-Triggers-/-Leaf-Forest"><g id="atlas-triggers"><path id="Stroke-1" class="cls-1" d="M9.5,5.46A4.22,4.22,0,0,0,6.7,9.14V26a5.78,5.78,0,0,1-5.64,5.92v.19A5.78,5.78,0,0,1,6.7,38h0V54.93A4.21,4.21,0,0,0,9.5,58.6"/><path id="Stroke-3" class="cls-1" d="M54.49,5.46a4.2,4.2,0,0,1,2.8,3.68V26a5.79,5.79,0,0,0,5.65,5.92v.19a5.79,5.79,0,0,0-5.65,5.92h0V54.93a4.19,4.19,0,0,1-2.8,3.67"/><path id="Stroke-5" class="cls-2" d="M14.23,4.42a145.44,145.44,0,0,1,35.54,0"/><path id="Stroke-7" class="cls-2" d="M14.23,59.68S33,62,49.77,59.68"/><path id="Stroke-9" class="cls-2" d="M14.23,7.93S33,10.2,49.77,7.93"/><path id="Path" class="cls-3" d="M38.79,33.45a1.32,1.32,0,0,0-1.13-2H33.17V19.8l-9.5,15.44a1.32,1.32,0,0,0,1.12,2h4.5V48.89Z"/></g></g></svg>