<svg id="Layer_1" data-name="Layer 1" xmlns="http://www.w3.org/2000/svg" viewBox="0 0 64 64"><defs><style>.cls-1,.cls-2,.cls-3{fill:none;stroke-linecap:round;stroke-linejoin:round;stroke-width:2px;}.cls-1,.cls-2{stroke:#13aa52;}.cls-2{stroke-dasharray:0 6.05;}.cls-3{stroke:#6e60f9;}</style></defs><line class="cls-1" x1="27.8" y1="39.27" x2="27.8" y2="39.27"/><line class="cls-2" x1="32.08" y1="34.99" x2="34.22" y2="32.85"/><line class="cls-1" x1="36.35" y1="30.71" x2="36.35" y2="30.71"/><line class="cls-1" x1="21.33" y1="35.39" x2="21.33" y2="35.39"/><line class="cls-2" x1="25.61" y1="31.11" x2="27.75" y2="28.97"/><line class="cls-1" x1="29.89" y1="26.83" x2="29.89" y2="26.83"/><line class="cls-1" x1="34.23" y1="43.54" x2="34.23" y2="43.54"/><line class="cls-2" x1="38.51" y1="39.27" x2="40.65" y2="37.13"/><line class="cls-1" x1="42.78" y1="34.99" x2="42.78" y2="34.99"/><g id="Group-13"><circle id="Oval" class="cls-1" cx="50.17" cy="10.85" r="8.41"/><path id="Path" class="cls-1" d="M60.58,26.46a13.69,13.69,0,0,0-20.82,0"/></g><g id="Group-13-2" data-name="Group-13"><circle id="Oval-2" data-name="Oval" class="cls-1" cx="12.75" cy="45.94" r="8.41"/><path id="Path-2" data-name="Path" class="cls-1" d="M23.15,61.56a13.66,13.66,0,0,0-20.81,0"/></g><polyline id="Path-3" data-name="Path" class="cls-3" points="53.58 38.62 58.4 35.35 61.66 40.17"/><path class="cls-3" d="M58.41,35.35A25.89,25.89,0,0,1,32.6,59.3"/><polyline id="Path-4" data-name="Path" class="cls-3" points="11.63 26.23 6.81 29.5 3.54 24.68"/><path class="cls-3" d="M6.8,29.5A25.87,25.87,0,0,1,32.6,5.55"/></svg>