<svg id="Layer_1" data-name="Layer 1" xmlns="http://www.w3.org/2000/svg" viewBox="0 0 64 64"><defs><style>.cls-1,.cls-3{fill:none;stroke-linecap:round;stroke-linejoin:round;stroke-width:2px;}.cls-1{stroke:#10a750;}.cls-2{fill:#10a750;}.cls-3{stroke:#6e60f8;}</style></defs><polyline id="Path" class="cls-1" points="8.28 3.97 7.31 9.71 13.05 10.69"/><polyline id="Path-2" data-name="Path" class="cls-1" points="55.4 47.84 56.55 53.55 62.26 52.4"/><path class="cls-2" d="M8,10.38a12,12,0,0,1,16.88.08C26,11.6,28.2,13.8,29.21,20.71a26.31,26.31,0,0,0,1.69-2.09c-1.17-6.14-3.32-8.3-4.59-9.58A14,14,0,0,0,6.6,9a1,1,0,0,0,0,1.42A1,1,0,0,0,8,10.38Z"/><path class="cls-2" d="M21.75,35.18l3.7-2.31C12.62,34.27,9,31.47,7.37,30.19A11.89,11.89,0,0,1,5.26,13.45,1,1,0,0,0,5.08,12a1,1,0,0,0-1.4.18A13.89,13.89,0,0,0,6.15,31.78C7.93,33.16,11.27,35.74,21.75,35.18Z"/><path class="cls-2" d="M53.29,56a11.87,11.87,0,0,1-8.4,3.48h0A11.87,11.87,0,0,1,36.41,56c-1.07-1.08-3.08-3.11-4.15-9.2-.58.56-1.16,1.14-1.72,1.73,1.21,5.6,3.24,7.65,4.46,8.88a13.82,13.82,0,0,0,9.85,4.14h0a13.82,13.82,0,0,0,9.81-4.06,1,1,0,0,0,0-1.41A1,1,0,0,0,53.29,56Z"/><path class="cls-2" d="M60.47,43.82a13.82,13.82,0,0,0-5.3-9.28c-1.79-1.39-5.12-4-15.63-3.41l-3.7,2.32C48.69,32,52.3,34.84,53.94,36.12a11.9,11.9,0,0,1,2.11,16.75,1,1,0,0,0,.18,1.4,1,1,0,0,0,1.4-.18A13.82,13.82,0,0,0,60.47,43.82Z"/><path class="cls-3" d="M36.05,16s-5.46,11.45-15.81,13.7c19-1.9,19.16-2,19.16-2L21,39.22l18.45-2A62,62,0,0,0,25,50.26"/></svg>