<svg id="Layer_1" data-name="Layer 1" xmlns="http://www.w3.org/2000/svg" viewBox="0 0 64 64"><defs><style>.cls-1,.cls-2{fill:none;stroke-linecap:round;stroke-linejoin:round;stroke-width:2px;}.cls-1{stroke:#6e60f9;}.cls-2{stroke:#13a852;}</style></defs><path class="cls-1" d="M36.68,19.77s-4.1,8.61-11.88,10.29c14.29-1.47,14.4-1.52,14.4-1.52L25.33,37.21,39.2,35.74a46.4,46.4,0,0,0-10.83,9.77"/><g id="_24px-_-MongoDB-_-MongoDB-Atlas-_-Leaf" data-name="24px-/-MongoDB-/-MongoDB-Atlas-/-Leaf"><g id="mongodb-atlas-cluster"><path id="Stroke-1" class="cls-2" d="M9.17,5.32A4.16,4.16,0,0,0,6.36,8.94V54a4.16,4.16,0,0,0,2.81,3.62"/><path id="Stroke-3" class="cls-2" d="M54.83,5.32a4.16,4.16,0,0,1,2.81,3.62v16.6c-.08,3.14-.08,8.69,0,11.83h0V54a4.16,4.16,0,0,1-2.81,3.62"/><path id="Stroke-5" class="cls-2" d="M14.69,4.66a148.13,148.13,0,0,1,35.55,0"/><path id="Stroke-7" class="cls-2" d="M14.69,59.43s18.78,2.23,35.55,0"/><path id="Stroke-9" class="cls-2" d="M14.69,8.81s18.78,2.23,35.55,0"/></g></g></svg>