<svg id="Layer_1" data-name="Layer 1" xmlns="http://www.w3.org/2000/svg" viewBox="0 0 64 64"><defs><style>.cls-1,.cls-2{fill:none;stroke-linecap:round;stroke-linejoin:round;stroke-width:2px;}.cls-1{stroke:#6e60f9;}.cls-2{stroke:#10a850;}</style></defs><path class="cls-1" d="M36.68,19.13s-4.1,8.61-11.88,10.3C39.09,28,39.2,27.9,39.2,27.9L25.33,36.57,39.2,35.1a46.4,46.4,0,0,0-10.83,9.77"/><path class="cls-2" d="M6.5,24.39a26.73,26.73,0,0,1,52.07,3.76c.13.91.22,1.82.26,2.72"/><path class="cls-2" d="M58.18,38a26.73,26.73,0,0,1-52.5-2.12,28.33,28.33,0,0,1-.28-4.38"/><polyline id="Path" class="cls-2" points="62.77 26.01 58.79 30.92 53.88 26.94"/><polyline id="Path-2" data-name="Path" class="cls-2" points="1.23 36.2 5.38 31.44 10.15 35.59"/></svg>