<svg id="Layer_1" data-name="Layer 1" xmlns="http://www.w3.org/2000/svg" viewBox="0 0 64 64"><defs><style>.cls-1,.cls-2{fill:none;stroke-linecap:round;stroke-linejoin:round;stroke-width:2px;}.cls-1{stroke:#13aa52;}.cls-2{stroke:#6e60f9;}</style></defs><line id="Path-Copy-40" class="cls-1" x1="3.9" y1="31.52" x2="3.9" y2="32.49"/><line id="Path-Copy-41" class="cls-1" x1="60.1" y1="31.52" x2="60.1" y2="32.49"/><line id="Path-Copy-42" class="cls-1" x1="16.87" y1="21.87" x2="21.19" y2="21.87"/><line id="Path-Copy-43" class="cls-1" x1="29.84" y1="21.87" x2="34.16" y2="21.87"/><line id="Path-Copy-44" class="cls-1" x1="42.81" y1="21.87" x2="47.13" y2="21.87"/><line id="Path-Copy-45" class="cls-1" x1="16.87" y1="42.14" x2="21.19" y2="42.14"/><line id="Path-Copy-46" class="cls-1" x1="29.84" y1="42.14" x2="34.16" y2="42.14"/><line id="Path-Copy-47" class="cls-1" x1="42.81" y1="42.14" x2="47.13" y2="42.14"/><line id="Path-Copy-40-2" data-name="Path-Copy-40" class="cls-1" x1="3.9" y1="51.79" x2="3.9" y2="52.76"/><line id="Path-Copy-41-2" data-name="Path-Copy-41" class="cls-1" x1="60.1" y1="51.79" x2="60.1" y2="52.76"/><line id="Path-Copy-45-2" data-name="Path-Copy-45" class="cls-1" x1="16.87" y1="62.41" x2="21.19" y2="62.41"/><line id="Path-Copy-46-2" data-name="Path-Copy-46" class="cls-1" x1="29.84" y1="62.41" x2="34.16" y2="62.41"/><line id="Path-Copy-47-2" data-name="Path-Copy-47" class="cls-1" x1="42.81" y1="62.41" x2="47.13" y2="62.41"/><path id="Path-Copy-37" class="cls-2" d="M55.78,21.87a4.33,4.33,0,0,1,4.32,4.34"/><path id="Path-Copy-4" class="cls-2" d="M60.1,58.07a4.33,4.33,0,0,1-4.32,4.34"/><path id="Path-Copy-37-2" data-name="Path-Copy-37" class="cls-2" d="M55.78,42.14a4.33,4.33,0,0,1,4.32,4.34"/><path id="Path-Copy-38" class="cls-2" d="M3.9,46.48a4.33,4.33,0,0,1,4.32-4.34"/><path id="Path-Copy-39" class="cls-2" d="M8.22,62.41A4.33,4.33,0,0,1,3.9,58.07"/><path id="Path" class="cls-2" d="M55.78,1.59A4.33,4.33,0,0,1,60.1,5.93"/><path id="Path-2" data-name="Path" class="cls-2" d="M3.9,5.93A4.33,4.33,0,0,1,8.22,1.59"/><path id="Path-3" data-name="Path" class="cls-2" d="M8.22,21.86A4.33,4.33,0,0,1,3.9,17.52"/><path id="Path-4" data-name="Path" class="cls-2" d="M60.1,17.52a4.33,4.33,0,0,1-4.32,4.34"/><path id="Path-Copy-4-2" data-name="Path-Copy-4" class="cls-2" d="M60.1,37.8a4.33,4.33,0,0,1-4.32,4.34"/><path id="Path-Copy-38-2" data-name="Path-Copy-38" class="cls-2" d="M3.9,26.21a4.33,4.33,0,0,1,4.32-4.34"/><path id="Path-Copy-39-2" data-name="Path-Copy-39" class="cls-2" d="M8.22,42.14A4.33,4.33,0,0,1,3.9,37.8"/><line id="Path-5" data-name="Path" class="cls-1" x1="3.9" y1="11.24" x2="3.9" y2="12.21"/><line id="Path-6" data-name="Path" class="cls-1" x1="60.1" y1="11.24" x2="60.1" y2="12.21"/><line id="Path-7" data-name="Path" class="cls-1" x1="16.87" y1="1.59" x2="21.19" y2="1.59"/><line id="Path-8" data-name="Path" class="cls-1" x1="29.84" y1="1.59" x2="34.16" y2="1.59"/><line id="Path-9" data-name="Path" class="cls-1" x1="42.81" y1="1.59" x2="47.13" y2="1.59"/></svg>