<svg id="Layer_1" data-name="Layer 1" xmlns="http://www.w3.org/2000/svg" viewBox="0 0 60 60"><defs><style>.cls-1,.cls-2{fill:none;stroke-linecap:round;stroke-linejoin:round;stroke-width:2px;}.cls-1{stroke:#6e60f9;}.cls-2{stroke:#13a752;}</style></defs><polyline class="cls-1" points="39.14 52.04 4.06 52.04 4.06 26.53"/><circle class="cls-2" cx="21.45" cy="16.39" r="2.41"/><path class="cls-1" d="M29.72,15.19l4.19-5.12a5.74,5.74,0,0,1,8.93,0l13.1,16.26"/><path class="cls-2" d="M28.69,14H36a2.4,2.4,0,0,1,2.41,2.4h0A2.41,2.41,0,0,1,36,18.8H33.17"/><polyline class="cls-2" points="39.14 26.53 55.94 26.53 55.94 52.04 39.14 52.04"/><path class="cls-1" d="M4.06,26.53,17.11,10.58a5.74,5.74,0,0,1,8.93,0l13.1,16.26V51.8"/></svg>