<svg id="Layer_1" data-name="Layer 1" xmlns="http://www.w3.org/2000/svg" viewBox="0 0 64 64"><defs><style>.cls-1,.cls-2{fill:none;stroke-linecap:round;stroke-linejoin:round;stroke-width:2px;}.cls-1{stroke:#6e60f9;}.cls-2{stroke:#13aa52;}</style></defs><line class="cls-1" x1="22.74" y1="58.16" x2="41.26" y2="58.16"/><rect class="cls-1" x="28.67" y="47.3" width="6.66" height="10.86"/><rect class="cls-2" x="41.76" y="18.95" width="10.54" height="18.07" rx="1.15"/><line class="cls-1" x1="46.3" y1="21.98" x2="48.15" y2="21.98"/><rect class="cls-2" x="12.73" y="5.84" width="22.29" height="31.19" rx="2.42"/><line class="cls-1" x1="22.33" y1="10.24" x2="26.23" y2="10.24"/><path class="cls-2" d="M41.36,11.43H60.2a1.65,1.65,0,0,1,1.65,1.65V45.65A1.65,1.65,0,0,1,60.2,47.3H3.8a1.65,1.65,0,0,1-1.65-1.65V13.08A1.65,1.65,0,0,1,3.8,11.43H7.09"/></svg>