<?xml version="1.0" encoding="UTF-8"?>
<svg width="54px" height="55px" viewBox="0 0 54 55" version="1.1" xmlns="http://www.w3.org/2000/svg" xmlns:xlink="http://www.w3.org/1999/xlink">
    <!-- Generator: Sketch 63.1 (92452) - https://sketch.com -->
    <title>Realm DB</title>
    <desc>Created with Sketch.</desc>
    <g id="Realm-Diagrams" stroke="none" stroke-width="1" fill="none" fill-rule="evenodd">
        <g id="Building-Sync-with-Realm_1-Copy" transform="translate(-393.000000, -120.000000)">
            <g id="Realm-DB" transform="translate(393.000000, 120.000000)">
                <path d="M4.32547281,3.0630051 C4.98475508,2.85632472 5.70344792,3.17481136 5.93071821,3.77436492 C6.1417549,4.33109323 5.85485794,4.93440706 5.28493765,5.18323419 L5.14849132,5.23418061 C4.10459231,5.56143565 3.36292063,6.37584853 3.21069862,7.26878108 L3.18819865,7.44829344 L3.18511174,48.4714624 C3.26537431,49.5133979 4.03499904,50.4167473 5.14849132,50.7658194 C5.80777359,50.9724998 6.1579885,51.6260815 5.93071821,52.2256351 C5.70344792,52.8251886 4.98475508,53.1436753 4.32547281,52.9369949 C2.34491305,52.3161033 0.93853098,50.7363495 0.688814748,48.8054979 L0.662850481,48.5517066 L0.665937392,7.36804925 C0.817322289,5.402833 2.25880176,3.71089203 4.32547281,3.0630051 Z" id="Stroke-1" fill="#13AA52" fill-rule="nonzero"></path>
                <path d="M48.0688105,3.77549128 C48.2952487,3.17572362 49.0131087,2.8565591 49.6721957,3.06261737 C51.6533219,3.68200061 53.060174,5.26315579 53.3079647,7.19445004 L53.333664,7.44829338 L53.3306661,48.6308119 C53.1814234,50.5975344 51.7394578,52.2910697 49.6721957,52.9373826 C49.0131087,53.1434409 48.2952487,52.8242764 48.0688105,52.2245087 C47.8585464,51.6675816 48.1459437,51.0645388 48.7157751,50.8162495 L48.8521903,50.7654318 C49.8952595,50.4393246 50.6364343,49.6250258 50.7876692,48.7313739 L50.809965,48.5517066 L50.8129629,7.52739865 C50.7339159,6.48571714 49.9647974,5.58241589 48.8521903,5.2345682 C48.1931034,5.02850993 47.8423722,4.37525894 48.0688105,3.77549128 Z" id="Stroke-3" fill="#13AA52" fill-rule="nonzero"></path>
                <path d="M10.0476536,0.927953007 C20.4747606,-0.169583015 32.3666284,-0.442317263 43.9696064,0.929884336 C44.6207949,1.00689576 45.0772421,1.5306068 44.9891098,2.09962568 C44.9009775,2.66864456 44.3016396,3.06749541 43.6504511,2.99048398 C32.279853,1.64576431 20.5759033,1.91418874 10.3322451,2.99241531 C9.67983595,3.06108657 9.08724583,2.65461 9.00865805,2.08452447 C8.93007026,1.51443895 9.3952444,0.996624266 10.0476536,0.927953007 Z" id="Stroke-5" fill="#13AA52" fill-rule="nonzero"></path>
                <path d="M43.6530987,52.0095063 C44.3044833,51.9312747 44.9027963,52.3444847 44.9894681,52.9324366 C45.0761399,53.5203886 44.6183497,54.060437 43.9669651,54.1386686 C42.4482923,54.321062 40.8795217,54.4729623 39.2649831,54.5957506 C31.4954819,55.1866337 23.2062294,55.0884444 15.2960115,54.568427 L14.1133339,54.4870096 C13.1558362,54.4180497 12.269608,54.3466318 11.4629131,54.27517 L10.0496021,54.1405539 C9.39706398,54.0705916 8.93091186,53.5364027 9.00842223,52.9474095 C9.0859326,52.3584163 9.67775387,51.9376587 10.330292,52.007621 L11.41356,52.1122407 L12.6843408,52.221667 C13.5393331,52.2915562 14.4702857,52.360527 15.4688704,52.426174 C23.2652315,52.9387065 31.4374448,53.0355094 39.0651888,52.4554071 C40.6425814,52.3354439 42.173423,52.1872161 43.6530987,52.0095063 Z" id="Stroke-7" fill="#13AA52" fill-rule="nonzero"></path>
                <path d="M43.6531529,5.00950071 C44.3045414,4.93128828 44.9028334,5.3445642 44.9894753,5.93257832 C45.0761173,6.52059243 44.6182997,7.06067576 43.9669111,7.13888819 C42.4482448,7.32123494 40.8794806,7.47309653 39.2649484,7.59585348 C31.4954718,8.18658632 23.2062397,8.08842195 15.2960416,7.5685364 C14.2828531,7.50194615 13.3376285,7.43193308 12.4686316,7.36091071 L10.6529229,7.20091424 L10.0496506,7.14077238 C9.39710927,7.0708273 8.93093284,6.5366024 9.0084164,5.94754767 C9.08589997,5.35849295 9.67770208,4.93767144 10.3302434,5.00761652 L11.1497718,5.08795754 L11.6953036,5.13747671 C12.805355,5.23578691 14.0708181,5.33418309 15.4688402,5.42606593 C23.2652211,5.93847102 31.437455,6.03524986 39.0652236,5.45529143 C40.6426225,5.33535782 42.1734706,5.18716663 43.6531529,5.00950071 Z" id="Stroke-9" fill="#13AA52" fill-rule="nonzero"></path>
                <path d="M32.1965309,16 C32.1965309,16 27.6420697,24.7019318 19,26.3989314 C34.8824048,24.914591 35,24.8611591 35,24.8611591 L19.5832721,33.6165228 L35,32.1311139 C35,32.1311139 27.8760841,36.1630908 22.9700132,42" id="Stroke-11" stroke="#6E60F9" stroke-width="2" stroke-linecap="round" stroke-linejoin="round"></path>
            </g>
        </g>
    </g>
</svg>