<svg width="20" height="20" viewBox="0 0 20 20" fill="none" xmlns="http://www.w3.org/2000/svg">
<path d="M13.0467 17.3466H1.35333V8.84326" stroke="#6E60F9" stroke-width="1.5" stroke-linecap="round" stroke-linejoin="round"/>
<path d="M7.14998 7.7667C7.86979 7.7667 8.45332 7.18318 8.45332 6.46337C8.45332 5.74356 7.86979 5.16003 7.14998 5.16003C6.43017 5.16003 5.84665 5.74356 5.84665 6.46337C5.84665 7.18318 6.43017 7.7667 7.14998 7.7667Z" stroke="#13A752" stroke-linecap="round" stroke-linejoin="round"/>
<path d="M9.90668 5.06338L11.3033 3.35671C11.4827 3.1347 11.7094 2.95563 11.967 2.83262C12.2245 2.7096 12.5063 2.64575 12.7917 2.64575C13.0771 2.64575 13.3589 2.7096 13.6164 2.83262C13.8739 2.95563 14.1007 3.1347 14.28 3.35671L18.6467 8.77671" stroke="#6E60F9" stroke-width="1.5" stroke-linecap="round" stroke-linejoin="round"/>
<mask id="path-4-outside-1" maskUnits="userSpaceOnUse" x="9.5" y="4" width="5" height="3" fill="black">
<rect fill="white" x="9.5" y="4" width="5" height="3"/>
<path d="M10.5 5L12.2562 5C12.3537 4.99973 12.4504 5.01246 12.5406 5.03746C12.6308 5.06247 12.7128 5.09926 12.782 5.14571C12.8511 5.19217 12.9059 5.24738 12.9433 5.30818C12.9807 5.36898 13 5.43417 13 5.5C12.9992 5.6328 12.9205 5.75997 12.781 5.85368C12.6416 5.94739 12.4529 6 12.2562 6H11.3827"/>
</mask>
<path d="M10.5 4C9.94772 4 9.5 4.44771 9.5 5C9.5 5.55228 9.94771 6 10.5 6L10.5 4ZM12.2562 5L12.2562 6.00001L12.259 6L12.2562 5ZM13 5.5L14 5.50615V5.50002L13 5.5ZM12.2562 6L12.2562 5H12.2562V6ZM11.3827 5C10.8304 5 10.3827 5.44772 10.3827 6C10.3827 6.55228 10.8304 7 11.3827 7V5ZM10.5 6L12.2562 6L12.2562 4L10.5 4L10.5 6ZM12.259 6C12.2635 5.99999 12.2675 6.00029 12.2705 6.00069C12.2736 6.0011 12.2747 6.00147 12.2735 6.00114L12.8077 4.07379C12.6259 4.02343 12.4383 3.99949 12.2534 4.00001L12.259 6ZM12.2735 6.00114C12.273 6.00099 12.2544 5.99603 12.2241 5.97564L13.3398 4.31579C13.1713 4.20248 12.9887 4.12395 12.8077 4.07379L12.2735 6.00114ZM12.2241 5.97564C12.1941 5.95551 12.1407 5.9119 12.0917 5.83232L13.795 4.78404C13.6711 4.58286 13.508 4.42883 13.3398 4.31579L12.2241 5.97564ZM12.0917 5.83232C12.0406 5.74928 12 5.63478 12 5.49999L14 5.50002C14 5.23355 13.9209 4.98867 13.795 4.78404L12.0917 5.83232ZM12 5.49385C12.0018 5.20818 12.1698 5.05964 12.2232 5.02375L13.3389 6.68361C13.6711 6.46031 13.9966 6.05742 14 5.50615L12 5.49385ZM12.2232 5.02375C12.2388 5.01323 12.2511 5.00705 12.2586 5.00367C12.2662 5.00027 12.2706 4.99898 12.2716 4.99871C12.2726 4.99842 12.2667 5 12.2562 5L12.2562 7C12.6168 7 13.0079 6.90614 13.3389 6.68361L12.2232 5.02375ZM12.2562 5H11.3827V7H12.2562V5Z" fill="#13A752" mask="url(#path-4-outside-1)"/>
<path d="M13.0467 8.84326H18.6467V17.3466H13.0467" stroke="#13A752" stroke-width="1.5" stroke-linecap="round" stroke-linejoin="round"/>
<path d="M1.35333 8.8433L5.70333 3.52663C5.88268 3.30463 6.10943 3.12556 6.36695 3.00254C6.62448 2.87952 6.90627 2.81567 7.19167 2.81567C7.47707 2.81567 7.75885 2.87952 8.01638 3.00254C8.2739 3.12556 8.50065 3.30463 8.68 3.52663L13.0467 8.94663V17.2666" stroke="#6E60F9" stroke-width="1.5" stroke-linecap="round" stroke-linejoin="round"/>
</svg>
