<svg id="Layer_1" data-name="Layer 1" xmlns="http://www.w3.org/2000/svg" viewBox="0 0 64 64"><defs><style>.cls-1,.cls-2{fill:none;stroke-linecap:round;stroke-linejoin:round;stroke-width:2px;}.cls-1{stroke:#13aa52;}.cls-2{stroke:#6e60f9;}</style></defs><g id="_96px-_-Security-_-Encryption-_-Leaf-Forest" data-name="96px-/-Security-/-Encryption-/-Leaf-Forest"><g id="security-encryption"><path id="Path" class="cls-1" d="M34,34H6.56A3.92,3.92,0,0,1,2.65,30V6.56A3.91,3.91,0,0,1,6.56,2.65h47a3.91,3.91,0,0,1,3.91,3.91V22.22"/><path id="Path-2" data-name="Path" class="cls-1" d="M14.39,17.32a1,1,0,1,1-1,1,.94.94,0,0,1,.29-.69,1,1,0,0,1,.69-.29"/><path id="Path-3" data-name="Path" class="cls-1" d="M30,17.32a1,1,0,1,1-.69.29,1,1,0,0,1,.69-.29"/><path id="Path-4" data-name="Path" class="cls-1" d="M45.7,17.32a1,1,0,1,1-1,1,.94.94,0,0,1,.29-.69,1,1,0,0,1,.69-.29"/><rect id="Rectangle" class="cls-2" x="37.87" y="41.78" width="23.48" height="19.57" rx="0.96"/><path id="Path-5" data-name="Path" class="cls-2" d="M49.61,30h0a7.84,7.84,0,0,0-7.83,7.83v3.91H57.44V37.87A7.84,7.84,0,0,0,49.61,30Z"/><path id="Path-6" data-name="Path" class="cls-2" d="M49.61,50.67a1,1,0,1,1-1,1,1,1,0,0,1,1-1"/></g></g></svg>